<?xml version="1.0" encoding="UTF-8" standalone="no"?>
<svg
   viewBox="0 0 352.29 204.89"
   version="1.1"
   id="svg197"
   sodipodi:docname="EvensLogo.svg"
   inkscape:version="1.2.1 (9c6d41e410, 2022-07-14)"
   xmlns:inkscape="http://www.inkscape.org/namespaces/inkscape"
   xmlns:sodipodi="http://sodipodi.sourceforge.net/DTD/sodipodi-0.dtd"
   xmlns:xlink="http://www.w3.org/1999/xlink"
   xmlns="http://www.w3.org/2000/svg"
   xmlns:svg="http://www.w3.org/2000/svg">
  <sodipodi:namedview
     id="namedview199"
     pagecolor="#ffffff"
     bordercolor="#000000"
     borderopacity="0.25"
     inkscape:showpageshadow="2"
     inkscape:pageopacity="0.0"
     inkscape:pagecheckerboard="0"
     inkscape:deskcolor="#d1d1d1"
     showgrid="false"
     inkscape:zoom="3.1681586"
     inkscape:cx="215.89828"
     inkscape:cy="110.15862"
     inkscape:window-width="1920"
     inkscape:window-height="1172"
     inkscape:window-x="-8"
     inkscape:window-y="-8"
     inkscape:window-maximized="1"
     inkscape:current-layer="logo" />
  <defs
     id="defs145">
    <rect
       x="25.251261"
       y="132.88476"
       width="192.8565"
       height="41.033299"
       id="rect538" />
    <style
       id="style121">.cls-1{fill:url(#linear-gradient);}.cls-2{fill:url(#linear-gradient-2);}.cls-3{fill:url(#linear-gradient-3);}.cls-4{fill:url(#linear-gradient-4);}.cls-5{fill:url(#linear-gradient-5);}.cls-6{fill:url(#linear-gradient-6);}.cls-7{fill:url(#linear-gradient-7);}.cls-8{fill:#231f20;}.cls-9{fill:url(#linear-gradient-8);}.cls-10{fill:#ed1c24;}</style>
    <linearGradient
       id="linear-gradient"
       x1="-4.3"
       y1="79.14"
       x2="318.92"
       y2="39.88"
       gradientUnits="userSpaceOnUse">
      <stop
         offset="0"
         stop-color="#fbb040"
         id="stop123" />
      <stop
         offset="0.68"
         stop-color="#ed1c24"
         id="stop125" />
      <stop
         offset="1"
         stop-color="#be1e2d"
         id="stop127" />
    </linearGradient>
    <linearGradient
       id="linear-gradient-2"
       x1="-6.77"
       y1="58.87"
       x2="316.45"
       y2="19.61"
       xlink:href="#linear-gradient" />
    <linearGradient
       id="linear-gradient-3"
       x1="-7.29"
       y1="54.52"
       x2="315.93"
       y2="15.26"
       xlink:href="#linear-gradient" />
    <linearGradient
       id="linear-gradient-4"
       x1="-0.51"
       y1="110.34"
       x2="322.71"
       y2="71.08"
       xlink:href="#linear-gradient" />
    <linearGradient
       id="linear-gradient-5"
       x1="-5.92"
       y1="65.81"
       x2="317.3"
       y2="26.56"
       xlink:href="#linear-gradient" />
    <linearGradient
       id="linear-gradient-6"
       x1="-57.75"
       y1="61.03"
       x2="348.68"
       y2="61.03"
       gradientUnits="userSpaceOnUse">
      <stop
         offset="0"
         stop-color="#fff"
         id="stop134" />
      <stop
         offset="0.83"
         id="stop136" />
    </linearGradient>
    <linearGradient
       id="linear-gradient-7"
       x1="-39.77"
       y1="87.7"
       x2="226.83"
       y2="87.7"
       gradientUnits="userSpaceOnUse">
      <stop
         offset="0.16"
         stop-color="#fff"
         id="stop139" />
      <stop
         offset="0.7"
         id="stop141" />
    </linearGradient>
    <linearGradient
       id="linear-gradient-8"
       x1="13.63"
       y1="92.79"
       x2="315.22"
       y2="56.17"
       xlink:href="#linear-gradient" />
  </defs>
  <g
     id="Layer_2"
     data-name="Layer 2">
    <g
       id="logo">
      <path
         class="cls-1"
         d="M45.77,87.41A147.56,147.56,0,0,1,73.49,66.9L66,56.25A149.26,149.26,0,0,0,38,82.66Z"
         id="path147" />
      <path
         class="cls-2"
         d="M76.49,49.17,84.82,61a166,166,0,0,1,34.52-11.81l-2.76-18.53A185.56,185.56,0,0,0,76.49,49.17Z"
         id="path149" />
      <path
         class="cls-3"
         d="M129.49,26.91l2.95,19.86A177.15,177.15,0,0,1,157.88,45q6.94,0,13.73.53l8.76-25A211.57,211.57,0,0,0,129.49,26.91Z"
         id="path151" />
      <path
         class="cls-4"
         d="M19.67,121.9A124.33,124.33,0,0,1,37.35,96.11L30.91,92.2a117.88,117.88,0,0,0-14.7,30.43Z"
         id="path153" />
      <path
         class="cls-5"
         d="M194.17,20.83,185,47a168.52,168.52,0,0,1,40.22,11.4l26.11-26.21A206.68,206.68,0,0,0,194.17,20.83Z"
         id="path155" />
      <path
         class="cls-6"
         d="M180.8,6.82c57,0,117.07,27.59,152.84,71.42l11.62-1.6C309.63,32.3,245.34,0,185,0,97.37,0,23.8,51.9,3.19,122.06,26.18,55.39,97,6.82,180.8,6.82Z"
         id="path157" />
      <path
         class="cls-7"
         d="M160.75,59.31a151.44,151.44,0,0,1,35.59,4.22c.67-.38,1.35-.74,2-1.09a151.08,151.08,0,0,0-43.65-6.39c-47.3,0-89.25,21.67-115.44,55.09h0l-.33.46q-2.94,3.78-5.6,7.75c7.45-1.28,16.1-2.58,26.11-3.85l-12.81-2.77C72.9,80.26,114.24,59.31,160.75,59.31Z"
         id="path159" />
      <polygon
         class="cls-8"
         points="165.31 89.45 288.94 1.74 288.94 1.74 179.04 113.45 165.31 89.45"
         id="polygon161" />
      <path
         class="cls-8"
         d="M179,113.45l17.73-18a25,25,0,1,0,.76,10Z"
         id="path163" />
      <path
         class="cls-9"
         d="M322.43,79.77c-18.57-18.14-42.06-34.55-58.63-42.63L237,64a174.17,174.17,0,0,1,35.47,22.6Z"
         id="path165" />
      <path
         class="cls-8"
         d="M29.72,204.89V202.6L51,189.14H29.72v-2.66H57.36v2.28L36.69,202.28H57.36v2.61Z"
         id="path167"
         style="fill:#2b0000" />
      <path
         class="cls-8"
         d="M67.35,204.89c-4.69,0-6.87-2-6.87-6v-8.26c0-2.69,1.41-4.16,5.23-4.16H84.57c3.82,0,5.16,1.47,5.16,4.16v2.47c0,2.69-1.34,4.16-5.16,4.16h-20v1.31c0,2.17,1.14,3.29,3.65,3.29h21v3ZM85.71,191.4c0-1.41-.7-2.18-2.58-2.18h-16c-1.88,0-2.61.77-2.61,2.18v3.32H83.13c1.88,0,2.58-.79,2.58-2.21Z"
         id="path169" />
      <path
         class="cls-8"
         d="M119.43,204.89a1.22,1.22,0,0,1-.57-1.2v-3.4c0-1.58-1.28-2.17-3.15-2.17H97.51v6.77H93.46V186.48h23.92c3.79,0,5.16,1.47,5.16,4.16v2.28c0,3.13-2.11,3.62-3.48,3.75,1.51.11,3.82.71,3.82,3.62v3.4a1.27,1.27,0,0,0,.57,1.2Zm-.91-13.49c0-1.41-.7-2.18-2.58-2.18H97.51v6.37h18.1c1.74,0,2.91-.52,2.91-2.15Z"
         id="path171" />
      <path
         class="cls-8"
         d="M132.73,204.89c-4.69,0-6.87-2-6.87-6v-6.44c0-4,2.18-6,6.87-6h15.55c4.69,0,6.84,2,6.84,6v6.44c0,4-2.15,6-6.84,6Zm18.33-12.1c0-2.21-1.14-3.29-3.62-3.29H133.57c-2.51,0-3.65,1.08-3.65,3.29v5.79c0,2.17,1.14,3.29,3.65,3.29h13.87c2.48,0,3.62-1.12,3.62-3.29Z"
         id="path173" />
      <path
         class="cls-8"
         d="M182.06,204.89V189.5H169.9v-3h28.38v3h-12.2v15.39Z"
         id="path175" />
      <path
         class="cls-8"
         d="M207.57,204.89c-4.69,0-6.87-2-6.87-6v-6.44c0-4,2.18-6,6.87-6h15.54c4.7,0,6.84,2,6.84,6v6.44c0,4-2.14,6-6.84,6Zm18.33-12.1c0-2.21-1.14-3.29-3.62-3.29H208.4c-2.51,0-3.65,1.08-3.65,3.29v5.79c0,2.17,1.14,3.29,3.65,3.29h13.88c2.48,0,3.62-1.12,3.62-3.29Z"
         id="path177" />
      <path
         class="cls-8"
         d="M251.47,204.89V192c0-1.6-1-2.47-3-2.47H244.9v-3h4.39c4.22,0,6.2,1.77,6.2,5.19v13.22Z"
         id="path179" />
      <path
         class="cls-8"
         d="M265.94,204.89c-4.69,0-6.86-2-6.86-6v-6.44c0-4,2.17-6,6.86-6h14.45c4.65,0,6.8,2,6.8,6v6.44c0,4-2.15,6-6.8,6Zm17.23-12.1c0-2.21-1.17-3.29-3.62-3.29H266.78c-2.51,0-3.65,1.08-3.65,3.29v5.79c0,2.17,1.14,3.29,3.65,3.29h12.77c2.45,0,3.62-1.12,3.62-3.29Z"
         id="path181" />
      <path
         class="cls-8"
         d="M297.38,204.89c-4.69,0-6.87-2-6.87-6v-6.44c0-4,2.18-6,6.87-6h14.44c4.66,0,6.8,2,6.8,6v6.44c0,4-2.14,6-6.8,6Zm17.22-12.1c0-2.21-1.17-3.29-3.62-3.29H298.22c-2.52,0-3.66,1.08-3.66,3.29v5.79c0,2.17,1.14,3.29,3.66,3.29H311c2.45,0,3.62-1.12,3.62-3.29Z"
         id="path183" />
      <text
         xml:space="preserve"
         id="text536"
         style="fill:#0000ff;-inkscape-font-specification:'Tahoma Bold';font-family:Tahoma;font-size:37.33333333px;font-weight:bold;white-space:pre;shape-inside:url(#rect538)" />
      <text
         xml:space="preserve"
         style="font-weight:bold;font-size:50.9676px;font-family:Tahoma;-inkscape-font-specification:'Tahoma Bold';fill:#0000ff;stroke-width:1.3652"
         x="31.100224"
         y="176.7923"
         id="text544"
         transform="scale(1.0288582,0.97195126)"><tspan
           sodipodi:role="line"
           id="tspan542"
           x="31.100224"
           y="176.7923"
           style="font-style:normal;font-variant:normal;font-weight:bold;font-stretch:normal;font-family:'Bowlby One SC';-inkscape-font-specification:'Bowlby One SC Bold';fill:#800000;stroke-width:1.3652">The Evens</tspan></text>
    </g>
  </g>
</svg>
